<svg width="32" height="32" viewBox="0 0 100 100" fill="none" xmlns="http://www.w3.org/2000/svg">
  <!-- Robot Bee Body -->
  <ellipse cx="50" cy="58" rx="22" ry="18" fill="#E6A700"/>
  
  <!-- Bee Stripes -->
  <rect x="38" y="48" width="24" height="5" rx="2" fill="#222"/>
  <rect x="38" y="57" width="24" height="5" rx="2" fill="#222"/>
  <rect x="38" y="66" width="24" height="5" rx="2" fill="#222"/>
  
  <!-- Robot Head -->
  <circle cx="50" cy="35" r="16" fill="#D4D9DC" stroke="#B8BFC4" stroke-width="2"/>
  
  <!-- Antenna -->
  <line x1="42" y1="22" x2="35" y2="10" stroke="#555" stroke-width="3" stroke-linecap="round"/>
  <line x1="58" y1="22" x2="65" y2="10" stroke="#555" stroke-width="3" stroke-linecap="round"/>
  <circle cx="35" cy="8" r="4" fill="#00A884"/>
  <circle cx="65" cy="8" r="4" fill="#00A884"/>
  
  <!-- Robot Eyes -->
  <circle cx="43" cy="33" r="5" fill="#00A884"/>
  <circle cx="57" cy="33" r="5" fill="#00A884"/>
  <circle cx="44" cy="32" r="2" fill="white"/>
  <circle cx="58" cy="32" r="2" fill="white"/>
  
  <!-- Wings -->
  <ellipse cx="28" cy="42" rx="14" ry="10" fill="#E3F2FD" fill-opacity="0.9" stroke="#90CAF9" stroke-width="1"/>
  <ellipse cx="72" cy="42" rx="14" ry="10" fill="#E3F2FD" fill-opacity="0.9" stroke="#90CAF9" stroke-width="1"/>
  
  <!-- Stinger -->
  <path d="M72 58 L 85 58 L 78 63 Z" fill="#555"/>
</svg>
